<?xml version="1.0" encoding="UTF-8" standalone="no"?>
<!DOCTYPE svg PUBLIC "-//W3C//DTD SVG 1.1//EN"
 "http://www.w3.org/Graphics/SVG/1.1/DTD/svg11.dtd">
<!-- Generated by graphviz version 2.38.0 (20140413.2041)
 -->
<!-- Title: G Pages: 1 -->
<svg width="5282pt" height="116pt"
 viewBox="0.00 0.00 5282.00 116.00" xmlns="http://www.w3.org/2000/svg" xmlns:xlink="http://www.w3.org/1999/xlink">
<g id="graph0" class="graph" transform="scale(1 1) rotate(0) translate(4 112)">
<title>G</title>
<polygon fill="white" stroke="none" points="-4,4 -4,-112 5278,-112 5278,4 -4,4"/>
<!-- 0 -->
<g id="node1" class="node"><title>0</title>
<ellipse fill="none" stroke="black" cx="387" cy="-90" rx="27" ry="18"/>
</g>
<!-- 1 -->
<g id="node2" class="node"><title>1</title>
<ellipse fill="none" stroke="black" cx="27" cy="-18" rx="27" ry="18"/>
</g>
<!-- 0&#45;&gt;1 -->
<g id="edge1" class="edge"><title>0&#45;&gt;1</title>
<path fill="none" stroke="black" d="M359.96,-87.1344C303.605,-82.6945 169.943,-69.2761 63,-36 61.0696,-35.3993 59.1103,-34.714 57.154,-33.9712"/>
<polygon fill="black" stroke="black" points="58.1176,-30.5785 47.5442,-29.904 55.3892,-37.0249 58.1176,-30.5785"/>
</g>
<!-- 2 -->
<g id="node3" class="node"><title>2</title>
<ellipse fill="none" stroke="black" cx="99" cy="-18" rx="27" ry="18"/>
</g>
<!-- 0&#45;&gt;2 -->
<g id="edge2" class="edge"><title>0&#45;&gt;2</title>
<path fill="none" stroke="black" d="M360.71,-85.541C314.279,-78.9788 215.094,-62.9194 135,-36 133.084,-35.3559 131.135,-34.6371 129.187,-33.869"/>
<polygon fill="black" stroke="black" points="130.167,-30.4802 119.599,-29.736 127.396,-36.9085 130.167,-30.4802"/>
</g>
<!-- 3 -->
<g id="node4" class="node"><title>3</title>
<ellipse fill="none" stroke="black" cx="171" cy="-18" rx="27" ry="18"/>
</g>
<!-- 0&#45;&gt;3 -->
<g id="edge3" class="edge"><title>0&#45;&gt;3</title>
<path fill="none" stroke="black" d="M361.848,-82.9092C326.676,-74.0968 261.04,-56.5733 207,-36 205.159,-35.2991 203.282,-34.5436 201.399,-33.7543"/>
<polygon fill="black" stroke="black" points="202.644,-30.4779 192.084,-29.6227 199.806,-36.8767 202.644,-30.4779"/>
</g>
<!-- 4 -->
<g id="node5" class="node"><title>4</title>
<ellipse fill="none" stroke="black" cx="243" cy="-18" rx="27" ry="18"/>
</g>
<!-- 0&#45;&gt;4 -->
<g id="edge4" class="edge"><title>0&#45;&gt;4</title>
<path fill="none" stroke="black" d="M365.752,-78.6713C341.398,-66.8324 301.281,-47.3312 273.572,-33.8615"/>
<polygon fill="black" stroke="black" points="274.859,-30.5953 264.335,-29.3711 271.798,-36.8909 274.859,-30.5953"/>
</g>
<!-- 5 -->
<g id="node6" class="node"><title>5</title>
<ellipse fill="none" stroke="black" cx="315" cy="-18" rx="27" ry="18"/>
</g>
<!-- 0&#45;&gt;5 -->
<g id="edge5" class="edge"><title>0&#45;&gt;5</title>
<path fill="none" stroke="black" d="M372.43,-74.8345C362.25,-64.9376 348.476,-51.5462 336.969,-40.3591"/>
<polygon fill="black" stroke="black" points="339.405,-37.8461 329.796,-33.3847 334.526,-42.865 339.405,-37.8461"/>
</g>
<!-- 6 -->
<g id="node7" class="node"><title>6</title>
<ellipse fill="none" stroke="black" cx="387" cy="-18" rx="27" ry="18"/>
</g>
<!-- 0&#45;&gt;6 -->
<g id="edge6" class="edge"><title>0&#45;&gt;6</title>
<path fill="none" stroke="black" d="M387,-71.6966C387,-63.9827 387,-54.7125 387,-46.1124"/>
<polygon fill="black" stroke="black" points="390.5,-46.1043 387,-36.1043 383.5,-46.1044 390.5,-46.1043"/>
</g>
<!-- 7 -->
<g id="node8" class="node"><title>7</title>
<ellipse fill="none" stroke="black" cx="459" cy="-18" rx="27" ry="18"/>
</g>
<!-- 0&#45;&gt;7 -->
<g id="edge7" class="edge"><title>0&#45;&gt;7</title>
<path fill="none" stroke="black" d="M401.57,-74.8345C411.75,-64.9376 425.524,-51.5462 437.031,-40.3591"/>
<polygon fill="black" stroke="black" points="439.474,-42.865 444.204,-33.3847 434.595,-37.8461 439.474,-42.865"/>
</g>
<!-- 8 -->
<g id="node9" class="node"><title>8</title>
<ellipse fill="none" stroke="black" cx="531" cy="-18" rx="27" ry="18"/>
</g>
<!-- 0&#45;&gt;8 -->
<g id="edge8" class="edge"><title>0&#45;&gt;8</title>
<path fill="none" stroke="black" d="M408.248,-78.6713C432.602,-66.8324 472.719,-47.3312 500.428,-33.8615"/>
<polygon fill="black" stroke="black" points="502.202,-36.8909 509.665,-29.3711 499.141,-30.5953 502.202,-36.8909"/>
</g>
<!-- 9 -->
<g id="node10" class="node"><title>9</title>
<ellipse fill="none" stroke="black" cx="603" cy="-18" rx="27" ry="18"/>
</g>
<!-- 0&#45;&gt;9 -->
<g id="edge9" class="edge"><title>0&#45;&gt;9</title>
<path fill="none" stroke="black" d="M408.028,-78.2261C412.871,-75.9832 418.053,-73.767 423,-72 485.125,-49.8086 504.875,-58.1914 567,-36 568.855,-35.3374 570.743,-34.6116 572.634,-33.8449"/>
<polygon fill="black" stroke="black" points="574.204,-36.9789 581.972,-29.7739 571.406,-30.5622 574.204,-36.9789"/>
</g>
<!-- 10 -->
<g id="node11" class="node"><title>10</title>
<ellipse fill="none" stroke="black" cx="675" cy="-18" rx="27" ry="18"/>
</g>
<!-- 0&#45;&gt;10 -->
<g id="edge10" class="edge"><title>0&#45;&gt;10</title>
<path fill="none" stroke="black" d="M407.548,-78.1072C412.503,-75.8164 417.855,-73.6095 423,-72 515.886,-42.9447 546.114,-65.0553 639,-36 640.93,-35.3964 642.888,-34.7089 644.844,-33.9644"/>
<polygon fill="black" stroke="black" points="646.61,-37.0171 654.452,-29.8928 643.879,-30.5719 646.61,-37.0171"/>
</g>
<!-- 11 -->
<g id="node12" class="node"><title>11</title>
<ellipse fill="none" stroke="black" cx="747" cy="-18" rx="27" ry="18"/>
</g>
<!-- 0&#45;&gt;11 -->
<g id="edge11" class="edge"><title>0&#45;&gt;11</title>
<path fill="none" stroke="black" d="M407.502,-77.9545C412.459,-75.67 417.823,-73.5042 423,-72 546.873,-36.0083 587.127,-71.9917 711,-36 712.941,-35.4359 714.909,-34.7788 716.872,-34.0573"/>
<polygon fill="black" stroke="black" points="718.614,-37.123 726.498,-30.0455 715.921,-30.6616 718.614,-37.123"/>
</g>
<!-- 12 -->
<g id="node13" class="node"><title>12</title>
<ellipse fill="none" stroke="black" cx="459" cy="-90" rx="27" ry="18"/>
</g>
<!-- 13 -->
<g id="node14" class="node"><title>13</title>
<ellipse fill="none" stroke="black" cx="531" cy="-90" rx="27" ry="18"/>
</g>
<!-- 14 -->
<g id="node15" class="node"><title>14</title>
<ellipse fill="none" stroke="black" cx="603" cy="-90" rx="27" ry="18"/>
</g>
<!-- 15 -->
<g id="node16" class="node"><title>15</title>
<ellipse fill="none" stroke="black" cx="675" cy="-90" rx="27" ry="18"/>
</g>
<!-- 16 -->
<g id="node17" class="node"><title>16</title>
<ellipse fill="none" stroke="black" cx="747" cy="-90" rx="27" ry="18"/>
</g>
<!-- 17 -->
<g id="node18" class="node"><title>17</title>
<ellipse fill="none" stroke="black" cx="819" cy="-90" rx="27" ry="18"/>
</g>
<!-- 18 -->
<g id="node19" class="node"><title>18</title>
<ellipse fill="none" stroke="black" cx="891" cy="-90" rx="27" ry="18"/>
</g>
<!-- 19 -->
<g id="node20" class="node"><title>19</title>
<ellipse fill="none" stroke="black" cx="963" cy="-90" rx="27" ry="18"/>
</g>
<!-- 20 -->
<g id="node21" class="node"><title>20</title>
<ellipse fill="none" stroke="black" cx="1035" cy="-90" rx="27" ry="18"/>
</g>
<!-- 21 -->
<g id="node22" class="node"><title>21</title>
<ellipse fill="none" stroke="black" cx="1107" cy="-90" rx="27" ry="18"/>
</g>
<!-- 22 -->
<g id="node23" class="node"><title>22</title>
<ellipse fill="none" stroke="black" cx="1179" cy="-90" rx="27" ry="18"/>
</g>
<!-- 23 -->
<g id="node24" class="node"><title>23</title>
<ellipse fill="none" stroke="black" cx="1251" cy="-90" rx="27" ry="18"/>
</g>
<!-- 24 -->
<g id="node25" class="node"><title>24</title>
<ellipse fill="none" stroke="black" cx="1323" cy="-90" rx="27" ry="18"/>
</g>
<!-- 25 -->
<g id="node26" class="node"><title>25</title>
<ellipse fill="none" stroke="black" cx="1395" cy="-90" rx="27" ry="18"/>
</g>
<!-- 26 -->
<g id="node27" class="node"><title>26</title>
<ellipse fill="none" stroke="black" cx="1467" cy="-90" rx="27" ry="18"/>
</g>
<!-- 27 -->
<g id="node28" class="node"><title>27</title>
<ellipse fill="none" stroke="black" cx="1539" cy="-90" rx="27" ry="18"/>
</g>
<!-- 28 -->
<g id="node29" class="node"><title>28</title>
<ellipse fill="none" stroke="black" cx="1611" cy="-90" rx="27" ry="18"/>
</g>
<!-- 29 -->
<g id="node30" class="node"><title>29</title>
<ellipse fill="none" stroke="black" cx="1683" cy="-90" rx="27" ry="18"/>
</g>
<!-- 30 -->
<g id="node31" class="node"><title>30</title>
<ellipse fill="none" stroke="black" cx="1755" cy="-90" rx="27" ry="18"/>
</g>
<!-- 31 -->
<g id="node32" class="node"><title>31</title>
<ellipse fill="none" stroke="black" cx="1827" cy="-90" rx="27" ry="18"/>
</g>
<!-- 32 -->
<g id="node33" class="node"><title>32</title>
<ellipse fill="none" stroke="black" cx="1899" cy="-90" rx="27" ry="18"/>
</g>
<!-- 33 -->
<g id="node34" class="node"><title>33</title>
<ellipse fill="none" stroke="black" cx="1971" cy="-90" rx="27" ry="18"/>
</g>
<!-- 34 -->
<g id="node35" class="node"><title>34</title>
<ellipse fill="none" stroke="black" cx="2043" cy="-90" rx="27" ry="18"/>
</g>
<!-- 35 -->
<g id="node36" class="node"><title>35</title>
<ellipse fill="none" stroke="black" cx="2115" cy="-90" rx="27" ry="18"/>
</g>
<!-- 36 -->
<g id="node37" class="node"><title>36</title>
<ellipse fill="none" stroke="black" cx="2187" cy="-90" rx="27" ry="18"/>
</g>
<!-- 37 -->
<g id="node38" class="node"><title>37</title>
<ellipse fill="none" stroke="black" cx="2259" cy="-90" rx="27" ry="18"/>
</g>
<!-- 38 -->
<g id="node39" class="node"><title>38</title>
<ellipse fill="none" stroke="black" cx="2331" cy="-90" rx="27" ry="18"/>
</g>
<!-- 39 -->
<g id="node40" class="node"><title>39</title>
<ellipse fill="none" stroke="black" cx="2403" cy="-90" rx="27" ry="18"/>
</g>
<!-- 40 -->
<g id="node41" class="node"><title>40</title>
<ellipse fill="none" stroke="black" cx="2475" cy="-90" rx="27" ry="18"/>
</g>
<!-- 41 -->
<g id="node42" class="node"><title>41</title>
<ellipse fill="none" stroke="black" cx="2547" cy="-90" rx="27" ry="18"/>
</g>
<!-- 42 -->
<g id="node43" class="node"><title>42</title>
<ellipse fill="none" stroke="black" cx="2619" cy="-90" rx="27" ry="18"/>
</g>
<!-- 43 -->
<g id="node44" class="node"><title>43</title>
<ellipse fill="none" stroke="black" cx="2691" cy="-90" rx="27" ry="18"/>
</g>
<!-- 44 -->
<g id="node45" class="node"><title>44</title>
<ellipse fill="none" stroke="black" cx="2763" cy="-90" rx="27" ry="18"/>
</g>
<!-- 45 -->
<g id="node46" class="node"><title>45</title>
<ellipse fill="none" stroke="black" cx="2835" cy="-90" rx="27" ry="18"/>
</g>
<!-- 46 -->
<g id="node47" class="node"><title>46</title>
<ellipse fill="none" stroke="black" cx="2907" cy="-90" rx="27" ry="18"/>
</g>
<!-- 47 -->
<g id="node48" class="node"><title>47</title>
<ellipse fill="none" stroke="black" cx="2979" cy="-90" rx="27" ry="18"/>
</g>
<!-- 48 -->
<g id="node49" class="node"><title>48</title>
<ellipse fill="none" stroke="black" cx="3051" cy="-90" rx="27" ry="18"/>
</g>
<!-- 49 -->
<g id="node50" class="node"><title>49</title>
<ellipse fill="none" stroke="black" cx="3123" cy="-90" rx="27" ry="18"/>
</g>
<!-- 50 -->
<g id="node51" class="node"><title>50</title>
<ellipse fill="none" stroke="black" cx="3195" cy="-90" rx="27" ry="18"/>
</g>
<!-- 51 -->
<g id="node52" class="node"><title>51</title>
<ellipse fill="none" stroke="black" cx="3267" cy="-90" rx="27" ry="18"/>
</g>
<!-- 52 -->
<g id="node53" class="node"><title>52</title>
<ellipse fill="none" stroke="black" cx="3339" cy="-90" rx="27" ry="18"/>
</g>
<!-- 53 -->
<g id="node54" class="node"><title>53</title>
<ellipse fill="none" stroke="black" cx="3411" cy="-90" rx="27" ry="18"/>
</g>
<!-- 54 -->
<g id="node55" class="node"><title>54</title>
<ellipse fill="none" stroke="black" cx="3483" cy="-90" rx="27" ry="18"/>
</g>
<!-- 55 -->
<g id="node56" class="node"><title>55</title>
<ellipse fill="none" stroke="black" cx="3555" cy="-90" rx="27" ry="18"/>
</g>
<!-- 56 -->
<g id="node57" class="node"><title>56</title>
<ellipse fill="none" stroke="black" cx="3627" cy="-90" rx="27" ry="18"/>
</g>
<!-- 57 -->
<g id="node58" class="node"><title>57</title>
<ellipse fill="none" stroke="black" cx="3699" cy="-90" rx="27" ry="18"/>
</g>
<!-- 58 -->
<g id="node59" class="node"><title>58</title>
<ellipse fill="none" stroke="black" cx="3771" cy="-90" rx="27" ry="18"/>
</g>
<!-- 59 -->
<g id="node60" class="node"><title>59</title>
<ellipse fill="none" stroke="black" cx="3843" cy="-90" rx="27" ry="18"/>
</g>
<!-- 60 -->
<g id="node61" class="node"><title>60</title>
<ellipse fill="none" stroke="black" cx="3915" cy="-90" rx="27" ry="18"/>
</g>
<!-- 61 -->
<g id="node62" class="node"><title>61</title>
<ellipse fill="none" stroke="black" cx="3987" cy="-90" rx="27" ry="18"/>
</g>
<!-- 62 -->
<g id="node63" class="node"><title>62</title>
<ellipse fill="none" stroke="black" cx="4059" cy="-90" rx="27" ry="18"/>
</g>
<!-- 63 -->
<g id="node64" class="node"><title>63</title>
<ellipse fill="none" stroke="black" cx="4131" cy="-90" rx="27" ry="18"/>
</g>
<!-- 64 -->
<g id="node65" class="node"><title>64</title>
<ellipse fill="none" stroke="black" cx="4203" cy="-90" rx="27" ry="18"/>
</g>
<!-- 65 -->
<g id="node66" class="node"><title>65</title>
<ellipse fill="none" stroke="black" cx="4275" cy="-90" rx="27" ry="18"/>
</g>
<!-- 66 -->
<g id="node67" class="node"><title>66</title>
<ellipse fill="none" stroke="black" cx="4347" cy="-90" rx="27" ry="18"/>
</g>
<!-- 67 -->
<g id="node68" class="node"><title>67</title>
<ellipse fill="none" stroke="black" cx="4419" cy="-90" rx="27" ry="18"/>
</g>
<!-- 68 -->
<g id="node69" class="node"><title>68</title>
<ellipse fill="none" stroke="black" cx="4491" cy="-90" rx="27" ry="18"/>
</g>
<!-- 69 -->
<g id="node70" class="node"><title>69</title>
<ellipse fill="none" stroke="black" cx="4563" cy="-90" rx="27" ry="18"/>
</g>
<!-- 70 -->
<g id="node71" class="node"><title>70</title>
<ellipse fill="none" stroke="black" cx="4635" cy="-90" rx="27" ry="18"/>
</g>
<!-- 71 -->
<g id="node72" class="node"><title>71</title>
<ellipse fill="none" stroke="black" cx="4707" cy="-90" rx="27" ry="18"/>
</g>
<!-- 72 -->
<g id="node73" class="node"><title>72</title>
<ellipse fill="none" stroke="black" cx="4671" cy="-18" rx="27" ry="18"/>
</g>
<!-- 71&#45;&gt;72 -->
<g id="edge12" class="edge"><title>71&#45;&gt;72</title>
<path fill="none" stroke="black" d="M4698.65,-72.7646C4694.29,-64.2831 4688.85,-53.7144 4683.96,-44.1974"/>
<polygon fill="black" stroke="black" points="4686.99,-42.4395 4679.3,-35.1473 4680.77,-45.6409 4686.99,-42.4395"/>
</g>
<!-- 73 -->
<g id="node74" class="node"><title>73</title>
<ellipse fill="none" stroke="black" cx="4743" cy="-18" rx="27" ry="18"/>
</g>
<!-- 71&#45;&gt;73 -->
<g id="edge13" class="edge"><title>71&#45;&gt;73</title>
<path fill="none" stroke="black" d="M4715.35,-72.7646C4719.71,-64.2831 4725.15,-53.7144 4730.04,-44.1974"/>
<polygon fill="black" stroke="black" points="4733.23,-45.6409 4734.7,-35.1473 4727.01,-42.4395 4733.23,-45.6409"/>
</g>
<!-- 74 -->
<g id="node75" class="node"><title>74</title>
<ellipse fill="none" stroke="black" cx="4887" cy="-90" rx="27" ry="18"/>
</g>
<!-- 75 -->
<g id="node76" class="node"><title>75</title>
<ellipse fill="none" stroke="black" cx="4815" cy="-18" rx="27" ry="18"/>
</g>
<!-- 74&#45;&gt;75 -->
<g id="edge14" class="edge"><title>74&#45;&gt;75</title>
<path fill="none" stroke="black" d="M4872.43,-74.8345C4862.25,-64.9376 4848.48,-51.5462 4836.97,-40.3591"/>
<polygon fill="black" stroke="black" points="4839.41,-37.8461 4829.8,-33.3847 4834.53,-42.865 4839.41,-37.8461"/>
</g>
<!-- 76 -->
<g id="node77" class="node"><title>76</title>
<ellipse fill="none" stroke="black" cx="4887" cy="-18" rx="27" ry="18"/>
</g>
<!-- 74&#45;&gt;76 -->
<g id="edge15" class="edge"><title>74&#45;&gt;76</title>
<path fill="none" stroke="black" d="M4887,-71.6966C4887,-63.9827 4887,-54.7125 4887,-46.1124"/>
<polygon fill="black" stroke="black" points="4890.5,-46.1043 4887,-36.1043 4883.5,-46.1044 4890.5,-46.1043"/>
</g>
<!-- 77 -->
<g id="node78" class="node"><title>77</title>
<ellipse fill="none" stroke="black" cx="4959" cy="-18" rx="27" ry="18"/>
</g>
<!-- 74&#45;&gt;77 -->
<g id="edge16" class="edge"><title>74&#45;&gt;77</title>
<path fill="none" stroke="black" d="M4901.57,-74.8345C4911.75,-64.9376 4925.52,-51.5462 4937.03,-40.3591"/>
<polygon fill="black" stroke="black" points="4939.47,-42.865 4944.2,-33.3847 4934.59,-37.8461 4939.47,-42.865"/>
</g>
<!-- 78 -->
<g id="node79" class="node"><title>78</title>
<ellipse fill="none" stroke="black" cx="4959" cy="-90" rx="27" ry="18"/>
</g>
<!-- 79 -->
<g id="node80" class="node"><title>79</title>
<ellipse fill="none" stroke="black" cx="5031" cy="-90" rx="27" ry="18"/>
</g>
<!-- 80 -->
<g id="node81" class="node"><title>80</title>
<ellipse fill="none" stroke="black" cx="5031" cy="-18" rx="27" ry="18"/>
</g>
<!-- 79&#45;&gt;80 -->
<g id="edge17" class="edge"><title>79&#45;&gt;80</title>
<path fill="none" stroke="black" d="M5031,-71.6966C5031,-63.9827 5031,-54.7125 5031,-46.1124"/>
<polygon fill="black" stroke="black" points="5034.5,-46.1043 5031,-36.1043 5027.5,-46.1044 5034.5,-46.1043"/>
</g>
<!-- 81 -->
<g id="node82" class="node"><title>81</title>
<ellipse fill="none" stroke="black" cx="5103" cy="-90" rx="27" ry="18"/>
</g>
<!-- 82 -->
<g id="node83" class="node"><title>82</title>
<ellipse fill="none" stroke="black" cx="5175" cy="-90" rx="27" ry="18"/>
</g>
<!-- 83 -->
<g id="node84" class="node"><title>83</title>
<ellipse fill="none" stroke="black" cx="5247" cy="-90" rx="27" ry="18"/>
</g>
</g>
</svg>
